<svg width="208" height="59" viewBox="0 0 208 59" fill="none" xmlns="http://www.w3.org/2000/svg">
<path d="M52 21.496C52 15.832 49.5238 13 44.5714 13H33.4286C28.4762 13 26 15.832 26 21.496C26 27.16 28.4762 29.9921 33.4286 29.9921H40.8571C45.8095 29.9921 52 29.4258 52 35.0898C52 40.7538 51.8585 46.9843 46.9061 46.9843H37.1429C32.1905 46.9843 26.0001 47.5507 26.0001 41.8867" stroke="url(#paint0_linear_88_33)" style="" stroke-width="4" stroke-linecap="round"/>
<path d="M67 15.7C67 14.7611 66.1046 14 65 14C63.8954 14 63 14.7611 63 15.7V46.3C63 47.2389 63.8954 48 65 48C66.1046 48 67 47.2389 67 46.3V15.7Z" fill="url(#paint1_linear_88_33)" style=""/>
<path d="M70 12H60C58.8954 12 58 12.8954 58 14C58 15.1046 58.8954 16 60 16H70C71.1046 16 72 15.1046 72 14C72 12.8954 71.1046 12 70 12Z" fill="url(#paint2_linear_88_33)" style=""/>
<path d="M70.7143 45H59.2857C58.0233 45 57 45.8954 57 47C57 48.1046 58.0233 49 59.2857 49H70.7143C71.9767 49 73 48.1046 73 47C73 45.8954 71.9767 45 70.7143 45Z" fill="url(#paint3_linear_88_33)" style=""/>
<path d="M105 18.6667C96.6667 11.1111 88.3333 11.1111 80 18.6667V41.3333C88.3333 48.8889 96.6667 48.8889 105 41.3333" stroke="url(#paint4_linear_88_33)" style="" stroke-width="4" stroke-linecap="round"/>
<path d="M118.737 20.8232C119.476 21.2139 120.199 21.4092 120.905 21.4092C121.726 21.4092 122.206 21.1471 122.346 20.623C122.391 20.4505 122.414 20.252 122.414 20.0273V19.8369C122.414 19.609 122.398 19.4251 122.365 19.2852C122.333 19.1452 122.264 19.0312 122.16 18.9434C121.991 18.7969 121.59 18.6748 120.959 18.5771C120.396 18.4893 120.007 18.4062 119.792 18.3281C119.577 18.25 119.4 18.1654 119.26 18.0742C119.123 17.9798 119.006 17.8626 118.908 17.7227C118.706 17.4297 118.605 17.0244 118.605 16.5068V16.458C118.605 15.3838 119.051 14.7409 119.943 14.5293C120.227 14.4642 120.547 14.4316 120.905 14.4316H120.969C121.805 14.4316 122.489 14.5521 123.02 14.793L122.766 15.54C122.124 15.2633 121.534 15.125 120.993 15.125H120.949C120.354 15.125 119.943 15.2373 119.719 15.4619C119.53 15.6507 119.436 15.9779 119.436 16.4434V16.4629C119.436 16.9935 119.582 17.3418 119.875 17.5078C120.074 17.6152 120.428 17.7096 120.939 17.791C121.454 17.8724 121.836 17.9424 122.087 18.001C122.338 18.0563 122.551 18.1491 122.727 18.2793C123.091 18.5527 123.273 19.0719 123.273 19.8369V19.9004C123.273 21.069 122.803 21.7656 121.862 21.9902C121.573 22.0618 121.299 22.0977 121.042 22.0977C120.785 22.0977 120.55 22.0879 120.339 22.0684C120.131 22.0521 119.917 22.0212 119.699 21.9756C119.188 21.8714 118.76 21.7152 118.415 21.5068L118.737 20.8232ZM125.085 14.5293H125.91V22H125.085V14.5293ZM127.907 20.8232C128.646 21.2139 129.369 21.4092 130.075 21.4092C130.896 21.4092 131.376 21.1471 131.516 20.623C131.561 20.4505 131.584 20.252 131.584 20.0273V19.8369C131.584 19.609 131.568 19.4251 131.535 19.2852C131.503 19.1452 131.434 19.0312 131.33 18.9434C131.161 18.7969 130.76 18.6748 130.129 18.5771C129.566 18.4893 129.177 18.4062 128.962 18.3281C128.747 18.25 128.57 18.1654 128.43 18.0742C128.293 17.9798 128.176 17.8626 128.078 17.7227C127.876 17.4297 127.775 17.0244 127.775 16.5068V16.458C127.775 15.3838 128.221 14.7409 129.113 14.5293C129.396 14.4642 129.717 14.4316 130.075 14.4316H130.139C130.975 14.4316 131.659 14.5521 132.189 14.793L131.936 15.54C131.294 15.2633 130.703 15.125 130.163 15.125H130.119C129.523 15.125 129.113 15.2373 128.889 15.4619C128.7 15.6507 128.605 15.9779 128.605 16.4434V16.4629C128.605 16.9935 128.752 17.3418 129.045 17.5078C129.243 17.6152 129.598 17.7096 130.109 17.791C130.624 17.8724 131.006 17.9424 131.257 18.001C131.507 18.0563 131.721 18.1491 131.896 18.2793C132.261 18.5527 132.443 19.0719 132.443 19.8369V19.9004C132.443 21.069 131.973 21.7656 131.032 21.9902C130.743 22.0618 130.469 22.0977 130.212 22.0977C129.955 22.0977 129.72 22.0879 129.509 22.0684C129.3 22.0521 129.087 22.0212 128.869 21.9756C128.358 21.8714 127.93 21.7152 127.585 21.5068L127.907 20.8232ZM135.051 15.252H133.059V14.5293H137.941V15.252H135.881V22H135.051V15.252ZM139.152 14.5293H143.386V15.252H139.982V17.8301H142.727V18.5479H139.982V21.2822H143.518V22H139.152V14.5293ZM145.607 14.5293H146.882L148.581 20.0469L148.869 21.2383L149.147 20.042L150.788 14.5293H152.004L153.21 22H152.38L151.472 16.3555L151.335 15.0371L151.037 16.3652L149.353 21.9951H148.391L146.633 16.3359L146.286 15.0371L146.12 16.3457L145.295 22H144.455L145.607 14.5293ZM156.545 14.5293H157.683L160.295 22H159.411L158.669 19.8076H155.661L154.958 22H154.099L156.545 14.5293ZM158.435 19.1094L157.116 15.1885L156.965 15.7451L155.886 19.1094H158.435Z" fill="white" style="fill:white;fill-opacity:1;"/>
<path d="M119.152 26.5732C119.152 26.5732 119.396 26.5553 119.885 26.5195C120.617 26.4609 121.201 26.4316 121.638 26.4316C122.074 26.4316 122.422 26.4495 122.683 26.4854C122.943 26.5179 123.171 26.5765 123.366 26.6611C123.565 26.7425 123.732 26.8548 123.869 26.998C124.009 27.1413 124.123 27.3236 124.211 27.5449C124.377 27.9583 124.46 28.5736 124.46 29.3906V30.1475C124.46 31.1143 124.388 31.8483 124.245 32.3496C124.079 32.929 123.781 33.3457 123.352 33.5996C122.909 33.8665 122.259 34 121.403 34H119.152V26.5732ZM123.298 27.7158C123.181 27.5303 123.011 27.3903 122.79 27.2959C122.569 27.2015 122.229 27.1543 121.77 27.1543C121.311 27.1543 120.715 27.182 119.982 27.2373V33.3018H121.535C122.141 33.3018 122.59 33.2025 122.883 33.0039C123.169 32.8118 123.361 32.4814 123.459 32.0127C123.544 31.6286 123.586 31.0068 123.586 30.1475V29.3857C123.586 28.5752 123.49 28.0186 123.298 27.7158ZM126.643 26.5293H130.876V27.252H127.473V29.8301H130.217V30.5479H127.473V33.2822H131.008V34H126.643V26.5293ZM135.085 26.5293H135.91V34H135.085V26.5293ZM138.322 26.5293H138.981L142.419 31.959L142.863 32.8818L142.756 31.8564V26.5293H143.513V34H142.814L139.401 28.585L138.972 27.7451L139.079 28.7412V34H138.322V26.5293ZM148.435 33.3945C148.965 33.3945 149.499 33.292 150.036 33.0869L150.251 33.7607C150.004 33.8844 149.706 33.9707 149.357 34.0195C149.009 34.0716 148.701 34.0977 148.435 34.0977H148.366C147.207 34.0977 146.431 33.7656 146.037 33.1016C145.796 32.6979 145.65 32.1543 145.598 31.4707C145.575 31.1419 145.563 30.7822 145.563 30.3916C145.563 30.001 145.573 29.6299 145.593 29.2783C145.616 28.9235 145.66 28.5996 145.725 28.3066C145.79 28.0104 145.884 27.7467 146.008 27.5156C146.132 27.2845 146.298 27.0892 146.506 26.9297C146.929 26.5977 147.544 26.4316 148.352 26.4316C148.872 26.4316 149.291 26.4658 149.606 26.5342C149.925 26.5993 150.14 26.653 150.251 26.6953L150.031 27.4668C149.396 27.2454 148.853 27.1348 148.4 27.1348C147.951 27.1348 147.604 27.1901 147.36 27.3008C147.119 27.4082 146.931 27.5872 146.794 27.8379C146.556 28.2676 146.438 29.0863 146.438 30.2939V30.6553C146.438 31.6481 146.566 32.3415 146.823 32.7354C147.11 33.1748 147.632 33.3945 148.391 33.3945H148.435ZM151.652 26.5293H155.886V27.252H152.482V29.8301H155.227V30.5479H152.482V33.2822H156.018V34H151.652V26.5293ZM157.492 26.5293H158.151L161.589 31.959L162.033 32.8818L161.926 31.8564V26.5293H162.683V34H161.984L158.571 28.585L158.142 27.7451L158.249 28.7412V34H157.492V26.5293ZM165.891 27.252H163.898V26.5293H168.781V27.252H166.721V34H165.891V27.252ZM170.095 26.5293H170.92V34H170.095V26.5293ZM172.502 26.5293H173.4L175.285 32.2178L175.539 33.2188L175.817 32.2178L177.658 26.5293H178.547L176.032 34.0049H175.07L172.502 26.5293ZM182.458 34.0977C181.299 34.0977 180.534 33.7331 180.163 33.0039C179.945 32.5807 179.816 32.016 179.777 31.3096C179.761 30.9775 179.753 30.6162 179.753 30.2256C179.753 29.835 179.764 29.4655 179.787 29.1172C179.81 28.7656 179.854 28.4482 179.919 28.165C179.987 27.8818 180.082 27.6328 180.202 27.418C180.326 27.1999 180.487 27.0176 180.686 26.8711C181.096 26.5781 181.687 26.4316 182.458 26.4316H182.761C183.968 26.4316 184.742 26.7572 185.08 27.4082C185.292 27.8151 185.41 28.3815 185.437 29.1074C185.45 29.4622 185.456 29.8382 185.456 30.2354C185.456 30.6292 185.446 30.9938 185.427 31.3291C185.407 31.6611 185.367 31.9688 185.305 32.252C185.243 32.5352 185.152 32.7907 185.031 33.0186C184.914 33.2464 184.755 33.4401 184.553 33.5996C184.136 33.9316 183.539 34.0977 182.761 34.0977H182.458ZM182.751 33.3945C183.109 33.3945 183.405 33.3555 183.64 33.2773C183.877 33.1992 184.064 33.0625 184.201 32.8672C184.455 32.5059 184.582 31.8125 184.582 30.7871V30.2598C184.582 29.7682 184.569 29.3304 184.543 28.9463C184.517 28.5622 184.447 28.2383 184.333 27.9746C184.099 27.4277 183.591 27.1543 182.81 27.1543H182.399C181.605 27.1543 181.097 27.4098 180.876 27.9209C180.736 28.2464 180.66 28.6305 180.646 29.0732C180.633 29.516 180.627 29.9115 180.627 30.2598V30.7871C180.627 31.7474 180.77 32.4245 181.057 32.8184C181.333 33.2025 181.8 33.3945 182.458 33.3945H182.751Z" fill="white" style="fill:white;fill-opacity:1;"/>
<path d="M120.686 38.5293H121.823L124.436 46H123.552L122.81 43.8076H119.802L119.099 46H118.239L120.686 38.5293ZM122.575 43.1094L121.257 39.1885L121.105 39.7451L120.026 43.1094H122.575ZM119.724 37.0352L120.134 36.2344L122.189 37.499L121.945 37.9482L119.724 37.0352ZM130.925 45.3945C131.455 45.3945 131.989 45.292 132.526 45.0869L132.741 45.7607C132.494 45.8844 132.196 45.9707 131.848 46.0195C131.499 46.0716 131.192 46.0977 130.925 46.0977H130.856C129.698 46.0977 128.921 45.7656 128.527 45.1016C128.286 44.6979 128.14 44.1543 128.088 43.4707C128.065 43.1419 128.054 42.7822 128.054 42.3916C128.054 42.001 128.063 41.6299 128.083 41.2783C128.106 40.9235 128.15 40.5996 128.215 40.3066C128.28 40.0104 128.374 39.7467 128.498 39.5156C128.622 39.2845 128.788 39.0892 128.996 38.9297C129.419 38.5977 130.035 38.4316 130.842 38.4316C131.363 38.4316 131.781 38.4658 132.097 38.5342C132.416 38.5993 132.631 38.653 132.741 38.6953L132.521 39.4668C131.887 39.2454 131.343 39.1348 130.891 39.1348C130.441 39.1348 130.095 39.1901 129.851 39.3008C129.61 39.4082 129.421 39.5872 129.284 39.8379C129.047 40.2676 128.928 41.0863 128.928 42.2939V42.6553C128.928 43.6481 129.056 44.3415 129.313 44.7354C129.6 45.1748 130.122 45.3945 130.881 45.3945H130.925ZM134.035 38.5293H134.855V42.5234C134.855 43.3112 134.89 43.8483 134.958 44.1348C135.026 44.4212 135.104 44.6377 135.192 44.7842C135.284 44.9274 135.401 45.043 135.544 45.1309C135.814 45.2969 136.185 45.3799 136.657 45.3799C137.132 45.3799 137.489 45.3392 137.727 45.2578C137.967 45.1764 138.153 45.0299 138.283 44.8184C138.417 44.6068 138.506 44.3154 138.552 43.9443C138.597 43.5732 138.62 43.0996 138.62 42.5234V38.5293H139.44V42.4941C139.44 43.3307 139.41 43.9085 139.348 44.2275C139.286 44.5433 139.2 44.8118 139.089 45.0332C138.981 45.2546 138.828 45.4434 138.63 45.5996C138.213 45.9316 137.591 46.0977 136.765 46.0977C135.534 46.0977 134.74 45.7461 134.382 45.043C134.183 44.6491 134.073 44.1283 134.05 43.4805C134.04 43.1842 134.035 42.8766 134.035 42.5576V38.5293ZM141.628 38.5293H142.458V45.2822H145.417V46H141.628V38.5293ZM147.541 39.252H145.549V38.5293H150.432V39.252H148.371V46H147.541V39.252ZM151.535 38.5293H152.355V42.5234C152.355 43.3112 152.39 43.8483 152.458 44.1348C152.526 44.4212 152.604 44.6377 152.692 44.7842C152.784 44.9274 152.901 45.043 153.044 45.1309C153.314 45.2969 153.685 45.3799 154.157 45.3799C154.632 45.3799 154.989 45.3392 155.227 45.2578C155.467 45.1764 155.653 45.0299 155.783 44.8184C155.917 44.6068 156.006 44.3154 156.052 43.9443C156.097 43.5732 156.12 43.0996 156.12 42.5234V38.5293H156.94V42.4941C156.94 43.3307 156.91 43.9085 156.848 44.2275C156.786 44.5433 156.7 44.8118 156.589 45.0332C156.481 45.2546 156.328 45.4434 156.13 45.5996C155.713 45.9316 155.091 46.0977 154.265 46.0977C153.034 46.0977 152.24 45.7461 151.882 45.043C151.683 44.6491 151.573 44.1283 151.55 43.4805C151.54 43.1842 151.535 42.8766 151.535 42.5576V38.5293ZM159.133 38.5537C160.191 38.4723 161.079 38.4316 161.799 38.4316H161.896C162.681 38.4316 163.231 38.6074 163.547 38.959C163.811 39.2617 163.942 39.7565 163.942 40.4434C163.942 41.3223 163.817 41.9766 163.566 42.4062C163.309 42.8424 162.883 43.1159 162.287 43.2266C162.398 43.3633 162.507 43.5065 162.614 43.6562L162.902 44.0713L164.187 46H163.21L162.087 44.2324C161.774 43.7572 161.543 43.443 161.394 43.29H161.34C161.109 43.2868 160.886 43.2819 160.671 43.2754L159.963 43.2461V46H159.133V38.5537ZM159.963 42.5869C160.305 42.6032 160.842 42.6113 161.574 42.6113C162.176 42.6113 162.587 42.4421 162.805 42.1035C162.99 41.8073 163.083 41.2897 163.083 40.5508C163.083 39.929 162.945 39.5221 162.668 39.3301C162.505 39.2161 162.326 39.1527 162.131 39.1396C161.939 39.1266 161.77 39.1201 161.623 39.1201C161.48 39.1201 161.34 39.1217 161.203 39.125C161.07 39.125 160.936 39.1266 160.803 39.1299C160.669 39.1331 160.534 39.138 160.397 39.1445L159.963 39.1738V42.5869ZM167.336 38.5293H168.474L171.086 46H170.202L169.46 43.8076H166.452L165.749 46H164.89L167.336 38.5293ZM169.226 43.1094L167.907 39.1885L167.756 39.7451L166.677 43.1094H169.226Z" fill="white" style="fill:white;fill-opacity:1;"/>
<defs>
<linearGradient id="paint0_linear_88_33" x1="35.9417" y1="13" x2="35.9417" y2="46.9841" gradientUnits="userSpaceOnUse">
<stop stop-color="white" style="stop-color:white;stop-opacity:1;"/>
</linearGradient>
<linearGradient id="paint1_linear_88_33" x1="65" y1="14" x2="65" y2="48" gradientUnits="userSpaceOnUse">
<stop stop-color="white" style="stop-color:white;stop-opacity:1;"/>
</linearGradient>
<linearGradient id="paint2_linear_88_33" x1="65" y1="12" x2="65" y2="16" gradientUnits="userSpaceOnUse">
<stop stop-color="white" style="stop-color:white;stop-opacity:1;"/>
</linearGradient>
<linearGradient id="paint3_linear_88_33" x1="65" y1="45" x2="65" y2="49" gradientUnits="userSpaceOnUse">
<stop stop-color="white" style="stop-color:white;stop-opacity:1;"/>
</linearGradient>
<linearGradient id="paint4_linear_88_33" x1="92.5" y1="13" x2="92.5" y2="47" gradientUnits="userSpaceOnUse">
<stop offset="0.370192" stop-color="white" style="stop-color:white;stop-opacity:1;"/>
</linearGradient>
</defs>
</svg>
